<svg width="40" height="26" viewBox="0 0 40 26" fill="none" xmlns="http://www.w3.org/2000/svg">
<path d="M10.563 18.3298V22.2148L0 16.0928L3.235 14.1138L10.563 18.3298Z" fill="#00ACD7"/>
<path d="M0 2V16.093L3.235 14.115L3.28 3.845L0 2Z" fill="#00ACD7"/>
<path d="M8.49924 11.3397C8.40424 11.4737 8.25624 11.5627 8.08124 11.5947L8.21124 13.8277L6.47024 12.8247L6.82024 11.1337C6.45224 10.7707 6.33124 10.2917 6.55124 9.98367C6.81124 9.61167 7.45724 9.61667 7.99624 9.99167C8.53424 10.3677 8.75924 10.9727 8.50324 11.3437L8.49924 11.3397Z" fill="#00ACD7"/>
<g clip-path="url(#clip0_706_53)">
<path fill-rule="evenodd" clip-rule="evenodd" d="M28.7209 11.4109C28.4146 11.4966 28.1041 11.5835 27.7446 11.6811C27.5691 11.7309 27.5291 11.7422 27.3657 11.5435C27.1697 11.3095 27.026 11.1581 26.7515 11.0204C25.9283 10.5937 25.1312 10.7176 24.3863 11.227C23.4978 11.8326 23.0404 12.7273 23.0535 13.8423C23.0665 14.9436 23.7853 15.8521 24.8176 16.0035C25.7062 16.1274 26.451 15.797 27.039 15.095C27.1566 14.9437 27.2612 14.7783 27.3919 14.5857H24.8699C24.5954 14.5857 24.5301 14.4068 24.6216 14.1727C24.7915 13.746 25.1051 13.0302 25.288 12.6723C25.3272 12.5897 25.4187 12.452 25.6147 12.452H29.8198C30.0087 11.8215 30.3152 11.2258 30.724 10.6621C31.678 9.34058 32.8279 8.65231 34.3829 8.3633C35.7158 8.11549 36.9702 8.25313 38.107 9.0653C39.1394 9.80866 39.7796 10.8135 39.9495 12.135C40.1717 13.9933 39.6621 15.5075 38.4468 16.8014C37.5843 17.7237 36.5259 18.3019 35.3106 18.5634C35.0788 18.6086 34.847 18.63 34.6189 18.6512C34.4999 18.6622 34.3818 18.6731 34.2653 18.6873C33.0761 18.6598 31.9916 18.3019 31.0768 17.476C30.4335 16.8902 29.9905 16.1703 29.7702 15.3323C29.6174 15.6574 29.4346 15.9688 29.2213 16.265C28.2804 17.5727 27.0521 18.3849 25.4971 18.6052C24.2164 18.7841 23.0274 18.5226 21.982 17.6967C21.015 16.9258 20.4661 15.9071 20.3224 14.6408C20.1525 13.1403 20.5707 11.7913 21.4331 10.6075C22.3609 9.32733 23.5893 8.51516 25.092 8.22607C26.3203 7.99207 27.4963 8.14352 28.5549 8.90061C29.2474 9.38234 29.744 10.0431 30.0707 10.8415C30.1491 10.9654 30.0968 11.0342 29.9399 11.0755C29.482 11.198 29.1049 11.3036 28.7209 11.4109ZM37.3662 12.9789C37.3688 13.0251 37.3715 13.0739 37.3753 13.1261C37.31 14.3099 36.748 15.1909 35.7158 15.7553C35.0232 16.1269 34.3044 16.1683 33.5858 15.8379C32.6449 15.3974 32.1483 14.3099 32.3835 13.2362C32.6711 11.9423 33.4551 11.1301 34.6703 10.841C35.9117 10.5382 37.1009 11.309 37.3361 12.6718C37.3546 12.7693 37.36 12.8667 37.3662 12.9789Z" fill="#00ACD7"/>
<path d="M15.9862 11.2544C15.9601 11.2957 15.9731 11.3232 16.0254 11.3232L19.9171 11.3371C19.9563 11.3371 20.0216 11.2957 20.0478 11.2544L20.2699 10.8965C20.296 10.8552 20.283 10.814 20.2307 10.814H16.4044C16.3521 10.814 16.2868 10.8415 16.2606 10.8828L15.9862 11.2544Z" fill="#00ACD7"/>
<path d="M14.0131 12.521C13.9869 12.5623 14 12.5898 14.0523 12.5898L19.3944 12.5761C19.4467 12.5761 19.499 12.5486 19.512 12.4935L19.6166 12.1631C19.6296 12.1218 19.6035 12.0806 19.5512 12.0806H14.4312C14.379 12.0806 14.3136 12.108 14.2875 12.1494L14.0131 12.521Z" fill="#00ACD7"/>
<path d="M17.1752 13.7734C17.149 13.8147 17.1621 13.856 17.2144 13.856L19.2244 13.8698C19.2635 13.8698 19.3158 13.8285 19.3158 13.7734L19.342 13.443C19.342 13.388 19.3158 13.3467 19.2635 13.3467H17.4888C17.4365 13.3467 17.3843 13.388 17.3581 13.4292L17.1752 13.7734Z" fill="#00ACD7"/>
</g>
<defs>
<clipPath id="clip0_706_53">
<rect width="26" height="26" fill="white" transform="translate(14)"/>
</clipPath>
</defs>
</svg>
